<svg width="13" height="8" viewBox="0 0 13 8" fill="none" xmlns="http://www.w3.org/2000/svg">
<path d="M6.17928 7.94231C6.27906 7.98076 6.38596 7.99999 6.5 7.99999C6.61403 8.00061 6.72094 7.98138 6.82072 7.94231C6.9205 7.90324 7.01316 7.83719 7.09868 7.74417L12.7434 1.60465C12.9145 1.41922 13 1.19845 13 0.942324C13 0.6862 12.9145 0.465115 12.7434 0.279069C12.5724 0.0930224 12.3728 0 12.1447 0C11.9167 0 11.7171 0.0930224 11.5461 0.279069L6.5 5.64294L1.45395 0.279069C1.28289 0.0930224 1.08333 0 0.855263 0C0.627193 0 0.427631 0.0930224 0.256579 0.279069C0.0855261 0.465735 0 0.68682 0 0.942324C0 1.19783 0.0855261 1.4186 0.256579 1.60465L5.90132 7.74417C5.98684 7.83781 6.07949 7.90386 6.17928 7.94231Z" fill="#565656"/>
</svg>
