<svg width="15" height="27" viewBox="0 0 15 27" fill="none" xmlns="http://www.w3.org/2000/svg">
<path d="M0.107495 12.8339C0.0358414 13.0411 1.37254e-05 13.2632 1.3715e-05 13.5C-0.00114215 13.7368 0.0346855 13.9589 0.107495 14.1661C0.180304 14.3734 0.303388 14.5658 0.476742 14.7434L11.9181 26.4671C12.2637 26.8224 12.6751 27 13.1524 27C13.6297 27 14.0417 26.8224 14.3884 26.4671C14.7352 26.1118 14.9085 25.6974 14.9085 25.2237C14.9085 24.75 14.7352 24.3355 14.3884 23.9803L4.39252 13.5L14.3884 3.01974C14.7352 2.66447 14.9085 2.25 14.9085 1.77632C14.9085 1.30263 14.7352 0.888157 14.3884 0.532894C14.0406 0.177631 13.6286 -5.59477e-08 13.1524 -7.67608e-08C12.6763 -9.75738e-08 12.2649 0.177631 11.9181 0.532894L0.476742 12.2566C0.302232 12.4342 0.179148 12.6266 0.107495 12.8339Z" fill="#B5B5B5"/>
</svg>
