<svg width="10" height="8" viewBox="0 0 10 8" fill="none" xmlns="http://www.w3.org/2000/svg">
<path d="M2.93909 5.98484L8.62294 0.230903C8.77367 0.0769676 8.9655 0 9.19843 0C9.43137 0 9.62319 0.0769676 9.77392 0.230903C9.92464 0.384839 10 0.580758 10 0.818658C10 1.05656 9.92464 1.25248 9.77392 1.40641L3.51457 7.74811C3.35015 7.91604 3.15832 8 2.93909 8C2.71986 8 2.52803 7.91604 2.3636 7.74811L0.226083 5.56501C0.0753609 5.41108 0 5.21516 0 4.97726C0 4.73936 0.0753609 4.54344 0.226083 4.3895C0.376806 4.23557 0.568635 4.1586 0.801569 4.1586C1.0345 4.1586 1.22633 4.23557 1.37706 4.3895L2.93909 5.98484Z" fill="white"/>
</svg>
