<svg width="20" height="29" viewBox="0 0 20 29" fill="none" xmlns="http://www.w3.org/2000/svg">
<path d="M1.42857 26.1H18.5714C19.3571 26.1 20 26.7525 20 27.55C20 28.3475 19.3571 29 18.5714 29H1.42857C0.642857 29 0 28.3475 0 27.55C0 26.7525 0.642857 26.1 1.42857 26.1ZM10 7.25C8.42857 7.25 7.14286 8.555 7.14286 10.15C7.14286 11.745 8.42857 13.05 10 13.05C11.5714 13.05 12.8571 11.745 12.8571 10.15C12.8571 8.555 11.5714 7.25 10 7.25ZM10 0C14.6714 0 20 3.567 20 10.3675C20 14.6885 16.9571 19.2415 10.8714 23.983C10.3571 24.389 9.64286 24.389 9.12857 23.983C3.04286 19.227 0 14.6885 0 10.3675C0 3.567 5.32857 0 10 0Z" fill="#A6192E"/>
</svg>
