<svg width="11" height="14" viewBox="0 0 11 14" fill="none" xmlns="http://www.w3.org/2000/svg">
<path d="M5.67139 12.838L5.67138 12.838L5.66887 12.84C5.5679 12.92 5.4321 12.92 5.33113 12.84L5.3292 12.8385C2.01261 10.2385 0.5 7.86381 0.5 5.72C0.5 2.28654 3.16246 0.5 5.5 0.5C7.83754 0.5 10.5 2.28654 10.5 5.72C10.5 7.86408 8.98692 10.2468 5.67139 12.838ZM5.5 3.5C4.35112 3.5 3.42857 4.45239 3.42857 5.6C3.42857 6.74761 4.35112 7.7 5.5 7.7C6.64888 7.7 7.57143 6.74761 7.57143 5.6C7.57143 4.45239 6.64888 3.5 5.5 3.5Z" stroke="white"/>
</svg>
