<svg width="8" height="8" viewBox="0 0 8 8" fill="none" xmlns="http://www.w3.org/2000/svg">
<path d="M7.99999 4C7.99999 4.07018 7.98938 4.13596 7.96815 4.19737C7.94692 4.25877 7.91045 4.31579 7.85874 4.36842L4.4687 7.84211C4.36597 7.94737 4.24406 8 4.10298 8C3.9619 8 3.83982 7.94737 3.73675 7.84211C3.63403 7.73684 3.58266 7.61403 3.58266 7.47368C3.58266 7.33333 3.63403 7.21053 3.73675 7.10526L6.2536 4.52632L0.500802 4.52632C0.35527 4.52632 0.23542 4.47579 0.141252 4.37474C0.0470838 4.27368 -1.68343e-07 4.14877 -1.74846e-07 4C-1.81364e-07 3.85088 0.0493096 3.72579 0.147929 3.62474C0.246549 3.52368 0.368453 3.47333 0.513643 3.47368L6.2536 3.47368L3.73675 0.894737C3.63402 0.789474 3.58266 0.666667 3.58266 0.526316C3.58266 0.385965 3.63402 0.263159 3.73675 0.157895C3.83948 0.0526322 3.96156 -1.73165e-07 4.10298 -1.79347e-07C4.2444 -1.85529e-07 4.36631 0.0526321 4.46869 0.157895L7.85874 3.63158C7.9101 3.68421 7.94657 3.74123 7.96815 3.80263C7.98972 3.86404 8.00033 3.92982 7.99999 4Z" fill="white"/>
</svg>
