<svg width="47" height="40" viewBox="0 0 47 40" fill="none" xmlns="http://www.w3.org/2000/svg">
<path d="M7.55556 14.3333H3V37H44V14.3333H40.5833M31.4722 12.0667C32.3637 12.5796 33.1271 13.2864 33.7054 14.1343C34.2838 14.9821 34.6621 15.9491 34.8121 16.9629C34.962 17.9767 34.8799 19.0111 34.5716 19.9888C34.2634 20.9666 33.7371 21.8623 33.032 22.6092C32.327 23.3561 31.4614 23.9347 30.5 24.3019C29.5387 24.669 28.5063 24.8152 27.4802 24.7295C26.4541 24.6439 25.4606 24.3285 24.5742 23.807C23.6878 23.2856 22.9312 22.5715 22.3611 21.7181M25.7778 9.8C25.7778 11.6035 25.0578 13.3331 23.7763 14.6083C22.4948 15.8836 20.7568 16.6 18.9444 16.6C17.1321 16.6 15.394 15.8836 14.1125 14.6083C12.831 13.3331 12.1111 11.6035 12.1111 9.8C12.1111 7.99653 12.831 6.26692 14.1125 4.99167C15.394 3.71643 17.1321 3 18.9444 3C20.7568 3 22.4948 3.71643 23.7763 4.99167C25.0578 6.26692 25.7778 7.99653 25.7778 9.8Z" stroke="#ADADAD" stroke-width="4.5" stroke-linecap="round" stroke-linejoin="round"/>
</svg>
