<svg width="40" height="35" viewBox="0 0 40 35" fill="none" xmlns="http://www.w3.org/2000/svg">
<path d="M40 16.4263C40.001 14.9354 39.6493 13.4661 38.9744 12.1429C38.2996 10.8196 37.3216 9.68113 36.123 8.82383C34.9245 7.96653 33.5407 7.41558 32.0888 7.21758C30.6368 7.01958 29.1594 7.18034 27.7813 7.68628C26.4033 8.19222 25.1653 9.02845 24.172 10.1242C23.1786 11.22 22.4592 12.5432 22.0745 13.9818C21.6898 15.4203 21.6512 16.932 21.962 18.389C22.2727 19.846 22.9236 21.2054 23.8596 22.3522V32.8525C23.8588 33.229 23.9554 33.5991 24.1399 33.9255C24.3243 34.2519 24.59 34.5231 24.9102 34.7117C25.2304 34.9003 25.5937 34.9998 25.9637 35C26.3337 35.0002 26.6971 34.9012 27.0175 34.713L30.8772 32.4633L34.7456 34.713C35.0658 34.899 35.4283 34.9962 35.797 34.9949C36.1657 34.9935 36.5276 34.8937 36.8464 34.7053C37.1652 34.5169 37.4299 34.2466 37.6139 33.9215C37.7979 33.5963 37.8947 33.2277 37.8947 32.8525V22.3522C39.2568 20.6888 40.0019 18.5915 40 16.4263ZM30.8772 11.427C31.8487 11.427 32.7985 11.7202 33.6063 12.2695C34.4141 12.8188 35.0437 13.5996 35.4155 14.5131C35.7873 15.4266 35.8846 16.4318 35.6951 17.4016C35.5055 18.3713 35.0377 19.2621 34.3507 19.9613C33.6637 20.6604 32.7884 21.1366 31.8355 21.3295C30.8826 21.5224 29.8949 21.4234 28.9973 21.045C28.0997 20.6666 27.3325 20.0258 26.7928 19.2037C26.253 18.3816 25.9649 17.415 25.9649 16.4263C25.9649 15.1004 26.4825 13.8288 27.4037 12.8912C28.3249 11.9537 29.5744 11.427 30.8772 11.427ZM31.9298 28.1353C31.6119 27.9506 31.2521 27.8534 30.886 27.8534C30.5198 27.8534 30.16 27.9506 29.8421 28.1353L28.0702 29.1602V25.2589C29.8947 25.8612 31.8596 25.8612 33.6842 25.2589V29.1602L31.9298 28.1353ZM21.0526 27.8532C21.0526 28.4214 20.8308 28.9664 20.436 29.3682C20.0412 29.77 19.5057 29.9958 18.9474 29.9958H3.50877C2.57819 29.9958 1.68572 29.6195 1.0277 28.9499C0.369673 28.2802 0 27.3719 0 26.4248V3.57092C0 2.62386 0.369673 1.71558 1.0277 1.0459C1.68572 0.376221 2.57819 0 3.50877 0H34.386C35.3165 0 36.209 0.376221 36.867 1.0459C37.5251 1.71558 37.8947 2.62386 37.8947 3.57092C37.8955 4.07691 37.7202 4.56683 37.4001 4.95392C37.0799 5.34101 36.6354 5.60029 36.1454 5.68583C35.6554 5.77137 35.1514 5.67765 34.7228 5.42128C34.2941 5.16491 33.9685 4.76242 33.8035 4.28511H4.21053V25.7107H18.9474C19.5057 25.7107 20.0412 25.9364 20.436 26.3382C20.8308 26.74 21.0526 27.285 21.0526 27.8532ZM18.9474 18.5688C18.9474 19.137 18.7256 19.682 18.3307 20.0838C17.9359 20.4856 17.4005 20.7114 16.8421 20.7114H9.82456C9.26621 20.7114 8.73073 20.4856 8.33591 20.0838C7.9411 19.682 7.7193 19.137 7.7193 18.5688C7.7193 18.0006 7.9411 17.4556 8.33591 17.0538C8.73073 16.652 9.26621 16.4263 9.82456 16.4263H16.8421C17.4005 16.4263 17.9359 16.652 18.3307 17.0538C18.7256 17.4556 18.9474 18.0006 18.9474 18.5688ZM18.9474 11.427C18.9474 11.9952 18.7256 12.5402 18.3307 12.942C17.9359 13.3438 17.4005 13.5695 16.8421 13.5695H9.82456C9.26621 13.5695 8.73073 13.3438 8.33591 12.942C7.9411 12.5402 7.7193 11.9952 7.7193 11.427C7.7193 10.8587 7.9411 10.3137 8.33591 9.91194C8.73073 9.51013 9.26621 9.2844 9.82456 9.2844H16.8421C17.4005 9.2844 17.9359 9.51013 18.3307 9.91194C18.7256 10.3137 18.9474 10.8587 18.9474 11.427Z" fill="#ADADAD"/>
</svg>
