<svg width="40" height="34" viewBox="0 0 40 34" fill="none" xmlns="http://www.w3.org/2000/svg">
<path d="M27.68 4.82107e-09C28.6695 -3.96565e-05 29.6436 0.244631 30.5156 0.712221C31.3876 1.17981 32.1305 1.85581 32.678 2.68L32.888 3.024L36.876 10H39.2C39.3844 9.99996 39.5632 10.0636 39.7061 10.1803C39.8489 10.2969 39.9471 10.4593 39.984 10.64L40 10.8V11.75C40.0002 12.0696 39.9047 12.382 39.7258 12.6469C39.5468 12.9117 39.2926 13.1169 38.996 13.236L38.74 13.316C39.4895 14.8724 39.823 16.5964 39.708 18.32L39.654 18.894L38.204 30.496C38.0899 31.4097 37.6641 32.2561 36.9984 32.8922C36.3327 33.5284 35.4679 33.9154 34.55 33.988L34.234 34H32C30.9908 34.0003 30.0189 33.6192 29.2789 32.933C28.5389 32.2468 28.0857 31.3063 28.01 30.3L28 30H12C12.0003 31.0092 11.6192 31.9811 10.933 32.7211C10.2468 33.4611 9.30631 33.9143 8.3 33.99L8 34H5.766C4.845 34.0006 3.95201 33.6833 3.23784 33.1017C2.52366 32.5202 2.03204 31.71 1.846 30.808L1.796 30.496L0.346 18.896C0.131737 17.1802 0.366027 15.4382 1.026 13.84L1.26 13.314L1.212 13.304C0.901646 13.2266 0.621623 13.0579 0.408077 12.8198C0.194531 12.5816 0.0572655 12.2849 0.014 11.968L1.66765e-08 11.75V10.8C-3.76241e-05 10.6156 0.0636455 10.4368 0.180271 10.2939C0.296897 10.1511 0.459302 10.0529 0.64 10.016L0.8 10H3.126L7.112 3.024C7.60299 2.16465 8.29894 1.44011 9.13783 0.914931C9.97672 0.389753 10.9325 0.0802494 11.92 0.0139999L12.32 4.82107e-09H27.68ZM35.52 16.072C34.4859 17.2053 33.0513 17.8918 31.52 17.986L31.108 18H8.892C8.0629 18.0054 7.24191 17.8365 6.48222 17.5044C5.72253 17.1723 5.04108 16.6843 4.482 16.072C4.31689 16.6761 4.24738 17.3024 4.276 17.928L4.316 18.398L5.766 30H8V28C8.00006 27.5101 8.17991 27.0373 8.50543 26.6713C8.83095 26.3052 9.2795 26.0713 9.766 26.014L10 26H30C30.4899 26.0001 30.9627 26.1799 31.3287 26.5054C31.6948 26.8309 31.9287 27.2795 31.986 27.766L32 28V30H34.234L35.684 18.398C35.784 17.614 35.726 16.824 35.52 16.072ZM7.474 19.796L12.96 22.76C13.706 23.164 13.396 24.298 12.548 24.264L7.92 24.078C7.4039 24.0573 6.91581 23.8378 6.55792 23.4654C6.20003 23.093 6.0001 22.5965 6 22.08V20.68C5.9999 20.5067 6.04482 20.3364 6.13035 20.1858C6.21588 20.0351 6.33909 19.9092 6.4879 19.8205C6.63671 19.7318 6.80602 19.6833 6.97924 19.6797C7.15246 19.6761 7.32363 19.7175 7.476 19.8L7.474 19.796ZM33.998 20.676V22.078C33.9984 22.5949 33.7987 23.0918 33.4408 23.4647C33.0828 23.8375 32.5944 24.0573 32.078 24.078L27.45 24.262C26.602 24.296 26.29 23.162 27.038 22.758L32.522 19.798C32.6744 19.7155 32.8455 19.6741 33.0188 19.6777C33.192 19.6813 33.3613 19.7298 33.5101 19.8185C33.6589 19.9072 33.7821 20.0331 33.8676 20.1838C33.9532 20.3344 33.9981 20.5027 33.998 20.676ZM27.68 4H12.32C11.9675 4.00011 11.6212 4.0934 11.3164 4.27042C11.0115 4.44744 10.7589 4.70189 10.584 5.008L7.156 11.008C6.98228 11.3121 6.89147 11.6565 6.89266 12.0068C6.89384 12.357 6.98698 12.7008 7.16274 13.0037C7.33851 13.3067 7.59075 13.5581 7.89422 13.733C8.1977 13.9078 8.54176 13.9999 8.892 14H31.108C31.4582 13.9999 31.8023 13.9078 32.1058 13.733C32.4093 13.5581 32.6615 13.3067 32.8373 13.0037C33.013 12.7008 33.1062 12.357 33.1073 12.0068C33.1085 11.6565 33.0177 11.3121 32.844 11.008L29.416 5.008C29.241 4.7016 28.988 4.44696 28.6828 4.26992C28.3775 4.09289 28.0309 3.99976 27.678 4H27.68Z" fill="#ADADAD"/>
</svg>
