<svg width="36" height="40" viewBox="0 0 36 40" fill="none" xmlns="http://www.w3.org/2000/svg">
<path d="M31.125 22.8333C31.125 25.6352 30.3003 28.3742 28.755 30.7039C27.2098 33.0336 25.0136 34.8494 22.444 35.9216C19.8744 36.9939 17.0469 37.2744 14.319 36.7278C11.5912 36.1812 9.08549 34.8319 7.11882 32.8507C5.15214 30.8694 3.81282 28.3452 3.27021 25.5971C2.72761 22.849 3.00609 20.0006 4.07045 17.412C5.13481 14.8234 6.93723 12.6108 9.2498 11.0542C11.5624 9.49753 14.2812 8.66667 17.0625 8.66667H33M33 8.66667L27.375 3M33 8.66667L27.375 14.3333" stroke="#ADADAD" stroke-width="4.5" stroke-linecap="round" stroke-linejoin="round"/>
</svg>
