<?xml version="1.0" encoding="utf-8"?><svg viewBox="0 0 47 40" xmlns="http://www.w3.org/2000/svg" xmlns:xlink="http://www.w3.org/1999/xlink"><style>:root>svg{display:none}:root>svg:target{display:block}</style><svg fill="none" viewBox="0 0 47 40" id="benefits--icon-1" xmlns="http://www.w3.org/2000/svg"><path d="M7.556 14.333H3V37h41V14.333h-3.417m-9.11-2.266a6.818 6.818 0 0 1 2.232 2.067 6.78 6.78 0 0 1 .867 5.855 6.792 6.792 0 0 1-1.54 2.62 6.835 6.835 0 0 1-2.532 1.693 6.864 6.864 0 0 1-5.926-.495 6.818 6.818 0 0 1-2.213-2.089M25.778 9.8c0 1.803-.72 3.533-2.002 4.808a6.85 6.85 0 0 1-4.832 1.992 6.85 6.85 0 0 1-4.831-1.992A6.783 6.783 0 0 1 12.11 9.8c0-1.803.72-3.533 2.002-4.808A6.85 6.85 0 0 1 18.944 3a6.85 6.85 0 0 1 4.832 1.992A6.783 6.783 0 0 1 25.778 9.8z" stroke="#ADADAD" stroke-width="4.5" stroke-linecap="round" stroke-linejoin="round"/></svg><svg fill="none" viewBox="0 0 40 34" id="benefits--icon-2" xmlns="http://www.w3.org/2000/svg"><path d="M27.68 0a6 6 0 0 1 4.998 2.68l.21.344L36.876 10H39.2a.8.8 0 0 1 .784.64l.016.16v.95a1.6 1.6 0 0 1-1.004 1.486l-.256.08a10 10 0 0 1 .968 5.004l-.054.574-1.45 11.602a4 4 0 0 1-3.654 3.492l-.316.012H32a4 4 0 0 1-3.99-3.7L28 30H12a4 4 0 0 1-3.7 3.99L8 34H5.766a4 4 0 0 1-3.92-3.192l-.05-.312-1.45-11.6a10 10 0 0 1 .68-5.056l.234-.526-.048-.01a1.6 1.6 0 0 1-1.198-1.336L0 11.75v-.95a.8.8 0 0 1 .64-.784L.8 10h2.326l3.986-6.976A6 6 0 0 1 11.92.014l.4-.014h15.36zm7.84 16.072a5.906 5.906 0 0 1-4 1.914l-.412.014H8.892a5.92 5.92 0 0 1-4.41-1.928 6 6 0 0 0-.206 1.856l.04.47L5.766 30H8v-2a2 2 0 0 1 1.766-1.986L10 26h20a2 2 0 0 1 1.986 1.766L32 28v2h2.234l1.45-11.602c.1-.784.042-1.574-.164-2.326zM7.474 19.796l5.486 2.964c.746.404.436 1.538-.412 1.504l-4.628-.186A2 2 0 0 1 6 22.08v-1.4a1 1 0 0 1 1.476-.88l-.002-.004zm26.524.88v1.402a2 2 0 0 1-1.92 2l-4.628.184c-.848.034-1.16-1.1-.412-1.504l5.484-2.96a1 1 0 0 1 1.476.878zM27.68 4H12.32a2 2 0 0 0-1.736 1.008l-3.428 6A2 2 0 0 0 8.892 14h22.216a2 2 0 0 0 1.736-2.992l-3.428-6A2 2 0 0 0 27.678 4h.002z" fill="#ADADAD"/></svg><svg fill="none" viewBox="0 0 36 40" id="benefits--icon-3" xmlns="http://www.w3.org/2000/svg"><path d="M31.125 22.833a14.24 14.24 0 0 1-2.37 7.87 14.085 14.085 0 0 1-6.311 5.219 13.966 13.966 0 0 1-8.125.806 14.031 14.031 0 0 1-7.2-3.877 14.2 14.2 0 0 1-3.849-7.254 14.264 14.264 0 0 1 .8-8.185 14.144 14.144 0 0 1 5.18-6.358 13.989 13.989 0 0 1 7.813-2.387H33m0 0L27.375 3M33 8.667l-5.625 5.666" stroke="#ADADAD" stroke-width="4.5" stroke-linecap="round" stroke-linejoin="round"/></svg><svg fill="none" viewBox="0 0 40 35" id="benefits--icon-4" xmlns="http://www.w3.org/2000/svg"><path d="M40 16.426a9.417 9.417 0 0 0-1.026-4.283 9.236 9.236 0 0 0-2.851-3.32 9.031 9.031 0 0 0-4.034-1.605 8.974 8.974 0 0 0-4.308.468 9.113 9.113 0 0 0-3.609 2.438 9.332 9.332 0 0 0-2.098 3.858 9.442 9.442 0 0 0-.112 4.407 9.352 9.352 0 0 0 1.898 3.963v10.5c-.001.377.095.747.28 1.074.184.326.45.597.77.786a2.077 2.077 0 0 0 2.107.001l3.86-2.25 3.869 2.25a2.078 2.078 0 0 0 2.1-.008c.32-.188.584-.458.768-.783.184-.326.28-.694.28-1.07v-10.5A9.344 9.344 0 0 0 40 16.426zm-9.123-4.999c.972 0 1.921.293 2.73.843a4.981 4.981 0 0 1 1.809 2.243c.371.914.469 1.919.28 2.889-.19.97-.658 1.86-1.345 2.56a4.887 4.887 0 0 1-2.515 1.367 4.833 4.833 0 0 1-2.839-.284 4.932 4.932 0 0 1-2.204-1.841 5.062 5.062 0 0 1-.828-2.778c0-1.326.518-2.597 1.439-3.535a4.87 4.87 0 0 1 3.473-1.464zm1.053 16.708a2.077 2.077 0 0 0-2.088 0L28.07 29.16v-3.9a8.947 8.947 0 0 0 5.614 0v3.901l-1.754-1.025zm-10.877-.282c0 .568-.222 1.113-.617 1.515-.395.402-.93.628-1.489.628H3.51c-.93 0-1.823-.377-2.481-1.046A3.603 3.603 0 0 1 0 26.425V3.57c0-.947.37-1.855 1.028-2.525A3.478 3.478 0 0 1 3.508 0h30.878c.93 0 1.823.376 2.481 1.046a3.603 3.603 0 0 1 1.028 2.525c0 .506-.175.996-.495 1.383s-.765.646-1.255.732a2.074 2.074 0 0 1-1.422-.265 2.134 2.134 0 0 1-.92-1.136H4.212v21.426h14.736c.559 0 1.094.225 1.489.627s.617.947.617 1.515zm-2.106-9.284c0 .568-.221 1.113-.616 1.515-.395.402-.93.627-1.489.627H9.825a2.087 2.087 0 0 1-1.49-.627 2.162 2.162 0 0 1-.616-1.515c0-.568.222-1.113.617-1.515.395-.402.93-.628 1.489-.628h7.017c.559 0 1.094.226 1.489.628s.616.947.616 1.515zm0-7.142c0 .568-.221 1.113-.616 1.515-.395.402-.93.627-1.489.627H9.825a2.087 2.087 0 0 1-1.49-.627 2.162 2.162 0 0 1-.616-1.515c0-.568.222-1.113.617-1.515.395-.402.93-.628 1.489-.628h7.017c.559 0 1.094.226 1.489.628s.616.947.616 1.515z" fill="#ADADAD"/></svg><svg fill="none" viewBox="0 0 25 25" id="goods--benefit-1" xmlns="http://www.w3.org/2000/svg"><mask id="ga" style="mask-type:alpha" maskUnits="userSpaceOnUse" x="0" y="0" width="25" height="25"><path fill="#D9D9D9" d="M0 0h25v25H0z"/></mask><g mask="url(#ga)" fill="#565656"><path d="m20.459 9.259-1.17 1.738a7.44 7.44 0 0 1-.21 7.123H5.891a7.44 7.44 0 0 1 1.055-8.91 7.641 7.641 0 0 1 4.21-2.246 7.698 7.698 0 0 1 4.736.679l1.76-1.156A9.61 9.61 0 0 0 5.96 7.585a9.359 9.359 0 0 0-2.86 5.447 9.299 9.299 0 0 0 1.153 6.028c.166.284.405.52.692.685.287.165.613.253.945.255h13.18a1.899 1.899 0 0 0 1.656-.94 9.305 9.305 0 0 0-.258-9.81l-.009.009z"/><path d="M11.143 15.687a1.905 1.905 0 0 0 1.347.55 1.923 1.923 0 0 0 1.346-.55l5.386-7.979-8.079 5.32a1.878 1.878 0 0 0-.558 1.329 1.86 1.86 0 0 0 .558 1.33z"/></g></svg><svg fill="none" viewBox="0 0 25 25" id="goods--benefit-2" xmlns="http://www.w3.org/2000/svg"><mask id="ha" style="mask-type:alpha" maskUnits="userSpaceOnUse" x="0" y="0" width="25" height="25"><path fill="#D9D9D9" d="M0 0h25v25H0z"/></mask><g mask="url(#ha)"><path d="M12.5 15.35a2.748 2.748 0 0 1-2.019-.831A2.748 2.748 0 0 1 9.65 12.5c0-.792.277-1.465.831-2.019A2.748 2.748 0 0 1 12.5 9.65c.792 0 1.465.277 2.019.831.554.554.831 1.227.831 2.019s-.277 1.465-.831 2.019a2.748 2.748 0 0 1-2.019.831zM3.95 10.6a.92.92 0 0 1-.677-.274A.916.916 0 0 1 3 9.65v-3.8a.92.92 0 0 1 .274-.677.916.916 0 0 1 .676-.273.92.92 0 0 1 .677.274.916.916 0 0 1 .273.676v.95a9.378 9.378 0 0 1 3.349-2.802A9.378 9.378 0 0 1 12.5 3c2.058 0 3.903.594 5.534 1.781a9.475 9.475 0 0 1 3.444 4.631c.11.317.074.594-.108.832-.182.237-.455.356-.819.356-.174 0-.348-.067-.522-.202a1.243 1.243 0 0 1-.38-.463 7.471 7.471 0 0 0-2.755-3.646C15.595 5.362 14.13 4.899 12.5 4.9a7.499 7.499 0 0 0-3.8 1.01A7.24 7.24 0 0 0 5.945 8.7H7.75a.92.92 0 0 1 .677.274.916.916 0 0 1 .273.676.92.92 0 0 1-.274.677.916.916 0 0 1-.676.273h-3.8zM12.5 22c-2.058 0-3.903-.594-5.534-1.781a9.476 9.476 0 0 1-3.444-4.632c-.11-.316-.075-.593.108-.83.182-.238.455-.357.819-.357.174 0 .348.067.522.202.174.135.301.29.38.463a7.472 7.472 0 0 0 2.755 3.646c1.299.927 2.763 1.39 4.394 1.389a7.499 7.499 0 0 0 3.8-1.01 7.24 7.24 0 0 0 2.755-2.79H17.25a.917.917 0 0 1-.676-.274.924.924 0 0 1-.274-.676.92.92 0 0 1 .274-.677.916.916 0 0 1 .676-.273h3.8a.92.92 0 0 1 .677.274.916.916 0 0 1 .273.676v3.8a.92.92 0 0 1-.274.677.916.916 0 0 1-.676.273.92.92 0 0 1-.677-.274.916.916 0 0 1-.273-.676v-.95a9.378 9.378 0 0 1-3.349 2.803A9.378 9.378 0 0 1 12.5 22z" fill="#565656"/></g></svg><svg fill="none" viewBox="0 0 25 25" id="goods--benefit-3" xmlns="http://www.w3.org/2000/svg"><mask id="ia" style="mask-type:alpha" maskUnits="userSpaceOnUse" x="0" y="0" width="25" height="25"><path fill="#D9D9D9" d="M0 0h25v25H0z"/></mask><g mask="url(#ia)"><path d="M4.81 19.118c-.498 0-.924-.173-1.279-.52A1.675 1.675 0 0 1 3 17.354V6.765c0-.486.177-.901.532-1.247A1.76 1.76 0 0 1 4.81 5h14.476c.497 0 .923.173 1.278.519.355.346.532.761.531 1.246v5.316h-1.81V6.765H4.81v10.588h9.07v1.765H4.81zM18.833 20l-.995-2.118-2.171-.97 2.171-.97.995-2.119.996 2.118 2.171.97-2.171.971L18.833 20zm-6.785-4.412 1.13-2.426 2.489-1.103-2.488-1.103-1.131-2.427-1.131 2.427-2.488 1.103 2.488 1.103 1.13 2.426z" fill="#565656"/></g></svg><svg fill="none" viewBox="0 0 11 14" id="map" xmlns="http://www.w3.org/2000/svg"><path d="m5.671 12.838-.002.002a.268.268 0 0 1-.338 0l-.002-.002C2.013 10.239.5 7.864.5 5.72.5 2.287 3.162.5 5.5.5s5 1.787 5 5.22c0 2.144-1.513 4.527-4.829 7.118zM5.5 3.5c-1.149 0-2.071.952-2.071 2.1 0 1.148.922 2.1 2.071 2.1s2.071-.952 2.071-2.1c0-1.148-.922-2.1-2.071-2.1z" stroke="#fff"/></svg><svg fill="none" viewBox="0 0 8 8" id="right-arrow" xmlns="http://www.w3.org/2000/svg"><path d="M8 4a.6.6 0 0 1-.032.197.457.457 0 0 1-.11.171l-3.39 3.474A.494.494 0 0 1 4.104 8a.495.495 0 0 1-.366-.158.511.511 0 0 1-.154-.368c0-.14.051-.263.154-.369l2.517-2.579H.5a.47.47 0 0 1-.36-.151A.529.529 0 0 1 0 4c0-.15.05-.274.148-.375a.489.489 0 0 1 .366-.151h5.74L3.737.894a.511.511 0 0 1-.154-.368c0-.14.051-.263.154-.368A.494.494 0 0 1 4.103 0c.141 0 .263.053.366.158l3.39 3.474c.051.052.088.11.11.17A.583.583 0 0 1 8 4z" fill="#fff"/></svg></svg>