<?xml version="1.0" encoding="utf-8"?><svg viewBox="0 0 47 40" xmlns="http://www.w3.org/2000/svg" xmlns:xlink="http://www.w3.org/1999/xlink"><style>:root>svg{display:none}:root>svg:target{display:block}</style><svg fill="none" viewBox="0 0 47 40" id="benefits--icon-1" xmlns="http://www.w3.org/2000/svg"><path d="M7.556 14.333H3V37h41V14.333h-3.417m-9.11-2.266a6.818 6.818 0 0 1 2.232 2.067 6.78 6.78 0 0 1 .867 5.855 6.792 6.792 0 0 1-1.54 2.62 6.835 6.835 0 0 1-2.532 1.693 6.864 6.864 0 0 1-5.926-.495 6.818 6.818 0 0 1-2.213-2.089M25.778 9.8c0 1.803-.72 3.533-2.002 4.808a6.85 6.85 0 0 1-4.832 1.992 6.85 6.85 0 0 1-4.831-1.992A6.783 6.783 0 0 1 12.11 9.8c0-1.803.72-3.533 2.002-4.808A6.85 6.85 0 0 1 18.944 3a6.85 6.85 0 0 1 4.832 1.992A6.783 6.783 0 0 1 25.778 9.8z" stroke="#ADADAD" stroke-width="4.5" stroke-linecap="round" stroke-linejoin="round"/></svg><svg fill="none" viewBox="0 0 40 34" id="benefits--icon-2" xmlns="http://www.w3.org/2000/svg"><path d="M27.68 0a6 6 0 0 1 4.998 2.68l.21.344L36.876 10H39.2a.8.8 0 0 1 .784.64l.016.16v.95a1.6 1.6 0 0 1-1.004 1.486l-.256.08a10 10 0 0 1 .968 5.004l-.054.574-1.45 11.602a4 4 0 0 1-3.654 3.492l-.316.012H32a4 4 0 0 1-3.99-3.7L28 30H12a4 4 0 0 1-3.7 3.99L8 34H5.766a4 4 0 0 1-3.92-3.192l-.05-.312-1.45-11.6a10 10 0 0 1 .68-5.056l.234-.526-.048-.01a1.6 1.6 0 0 1-1.198-1.336L0 11.75v-.95a.8.8 0 0 1 .64-.784L.8 10h2.326l3.986-6.976A6 6 0 0 1 11.92.014l.4-.014h15.36zm7.84 16.072a5.906 5.906 0 0 1-4 1.914l-.412.014H8.892a5.92 5.92 0 0 1-4.41-1.928 6 6 0 0 0-.206 1.856l.04.47L5.766 30H8v-2a2 2 0 0 1 1.766-1.986L10 26h20a2 2 0 0 1 1.986 1.766L32 28v2h2.234l1.45-11.602c.1-.784.042-1.574-.164-2.326zM7.474 19.796l5.486 2.964c.746.404.436 1.538-.412 1.504l-4.628-.186A2 2 0 0 1 6 22.08v-1.4a1 1 0 0 1 1.476-.88l-.002-.004zm26.524.88v1.402a2 2 0 0 1-1.92 2l-4.628.184c-.848.034-1.16-1.1-.412-1.504l5.484-2.96a1 1 0 0 1 1.476.878zM27.68 4H12.32a2 2 0 0 0-1.736 1.008l-3.428 6A2 2 0 0 0 8.892 14h22.216a2 2 0 0 0 1.736-2.992l-3.428-6A2 2 0 0 0 27.678 4h.002z" fill="#ADADAD"/></svg><svg fill="none" viewBox="0 0 36 40" id="benefits--icon-3" xmlns="http://www.w3.org/2000/svg"><path d="M31.125 22.833a14.24 14.24 0 0 1-2.37 7.87 14.085 14.085 0 0 1-6.311 5.219 13.966 13.966 0 0 1-8.125.806 14.031 14.031 0 0 1-7.2-3.877 14.2 14.2 0 0 1-3.849-7.254 14.264 14.264 0 0 1 .8-8.185 14.144 14.144 0 0 1 5.18-6.358 13.989 13.989 0 0 1 7.813-2.387H33m0 0L27.375 3M33 8.667l-5.625 5.666" stroke="#ADADAD" stroke-width="4.5" stroke-linecap="round" stroke-linejoin="round"/></svg><svg fill="none" viewBox="0 0 40 35" id="benefits--icon-4" xmlns="http://www.w3.org/2000/svg"><path d="M40 16.426a9.417 9.417 0 0 0-1.026-4.283 9.236 9.236 0 0 0-2.851-3.32 9.031 9.031 0 0 0-4.034-1.605 8.974 8.974 0 0 0-4.308.468 9.113 9.113 0 0 0-3.609 2.438 9.332 9.332 0 0 0-2.098 3.858 9.442 9.442 0 0 0-.112 4.407 9.352 9.352 0 0 0 1.898 3.963v10.5c-.001.377.095.747.28 1.074.184.326.45.597.77.786a2.077 2.077 0 0 0 2.107.001l3.86-2.25 3.869 2.25a2.078 2.078 0 0 0 2.1-.008c.32-.188.584-.458.768-.783.184-.326.28-.694.28-1.07v-10.5A9.344 9.344 0 0 0 40 16.426zm-9.123-4.999c.972 0 1.921.293 2.73.843a4.981 4.981 0 0 1 1.809 2.243c.371.914.469 1.919.28 2.889-.19.97-.658 1.86-1.345 2.56a4.887 4.887 0 0 1-2.515 1.367 4.833 4.833 0 0 1-2.839-.284 4.932 4.932 0 0 1-2.204-1.841 5.062 5.062 0 0 1-.828-2.778c0-1.326.518-2.597 1.439-3.535a4.87 4.87 0 0 1 3.473-1.464zm1.053 16.708a2.077 2.077 0 0 0-2.088 0L28.07 29.16v-3.9a8.947 8.947 0 0 0 5.614 0v3.901l-1.754-1.025zm-10.877-.282c0 .568-.222 1.113-.617 1.515-.395.402-.93.628-1.489.628H3.51c-.93 0-1.823-.377-2.481-1.046A3.603 3.603 0 0 1 0 26.425V3.57c0-.947.37-1.855 1.028-2.525A3.478 3.478 0 0 1 3.508 0h30.878c.93 0 1.823.376 2.481 1.046a3.603 3.603 0 0 1 1.028 2.525c0 .506-.175.996-.495 1.383s-.765.646-1.255.732a2.074 2.074 0 0 1-1.422-.265 2.134 2.134 0 0 1-.92-1.136H4.212v21.426h14.736c.559 0 1.094.225 1.489.627s.617.947.617 1.515zm-2.106-9.284c0 .568-.221 1.113-.616 1.515-.395.402-.93.627-1.489.627H9.825a2.087 2.087 0 0 1-1.49-.627 2.162 2.162 0 0 1-.616-1.515c0-.568.222-1.113.617-1.515.395-.402.93-.628 1.489-.628h7.017c.559 0 1.094.226 1.489.628s.616.947.616 1.515zm0-7.142c0 .568-.221 1.113-.616 1.515-.395.402-.93.627-1.489.627H9.825a2.087 2.087 0 0 1-1.49-.627 2.162 2.162 0 0 1-.616-1.515c0-.568.222-1.113.617-1.515.395-.402.93-.628 1.489-.628h7.017c.559 0 1.094.226 1.489.628s.616.947.616 1.515z" fill="#ADADAD"/></svg><svg fill="none" viewBox="0 0 11 14" id="map" xmlns="http://www.w3.org/2000/svg"><path d="m5.671 12.838-.002.002a.268.268 0 0 1-.338 0l-.002-.002C2.013 10.239.5 7.864.5 5.72.5 2.287 3.162.5 5.5.5s5 1.787 5 5.22c0 2.144-1.513 4.527-4.829 7.118zM5.5 3.5c-1.149 0-2.071.952-2.071 2.1 0 1.148.922 2.1 2.071 2.1s2.071-.952 2.071-2.1c0-1.148-.922-2.1-2.071-2.1z" stroke="#fff"/></svg></svg>