<svg width="25" height="25" viewBox="0 0 25 25" fill="none" xmlns="http://www.w3.org/2000/svg">
<mask id="mask0_108_85" style="mask-type:alpha" maskUnits="userSpaceOnUse" x="0" y="0" width="25" height="25">
<rect width="25" height="25" fill="#D9D9D9"/>
</mask>
<g mask="url(#mask0_108_85)">
<path d="M20.459 9.25888L19.2886 10.9974C19.853 12.1092 20.1294 13.3418 20.0928 14.585C20.0563 15.8282 19.708 17.043 19.0792 18.1205H5.89076C5.07354 16.7204 4.73491 15.0975 4.92507 13.4924C5.11523 11.8873 5.82406 10.3855 6.94648 9.20948C8.0689 8.03351 9.54516 7.24602 11.1564 6.96378C12.7676 6.68154 14.4281 6.91956 15.8916 7.64255L17.6519 6.48668C15.8597 5.35169 13.7337 4.8431 11.6142 5.04226C9.49471 5.24142 7.50406 6.13682 5.96069 7.58524C4.41732 9.03366 3.41041 10.9514 3.10102 13.0317C2.79163 15.112 3.19763 17.2347 4.25409 19.0603C4.42015 19.3443 4.65859 19.5805 4.94571 19.7454C5.23283 19.9102 5.55864 19.998 5.89076 20H19.0697C19.4051 20.0013 19.7348 19.9151 20.0256 19.7501C20.3163 19.585 20.5578 19.3471 20.7254 19.0603C21.6022 17.5604 22.0422 15.8504 21.9968 14.1191C21.9515 12.3878 21.4226 10.7026 20.4685 9.24949L20.459 9.25888Z" fill="#565656"/>
<path d="M11.1433 15.6866C11.3201 15.8614 11.53 16 11.761 16.0946C11.992 16.1892 12.2397 16.2378 12.4898 16.2378C12.7399 16.2378 12.9875 16.1892 13.2185 16.0946C13.4496 16 13.6595 15.8614 13.8362 15.6866L19.222 7.70832L11.1433 13.0272C10.9664 13.2017 10.826 13.409 10.7302 13.6372C10.6345 13.8653 10.5852 14.1099 10.5852 14.3569C10.5852 14.6039 10.6345 14.8485 10.7302 15.0766C10.826 15.3048 10.9664 15.5121 11.1433 15.6866Z" fill="#565656"/>
</g>
</svg>
