<svg width="25" height="25" viewBox="0 0 25 25" fill="none" xmlns="http://www.w3.org/2000/svg">
<mask id="mask0_108_86" style="mask-type:alpha" maskUnits="userSpaceOnUse" x="0" y="0" width="25" height="25">
<rect width="25" height="25" fill="#D9D9D9"/>
</mask>
<g mask="url(#mask0_108_86)">
<path d="M12.5 15.35C11.7083 15.35 11.0354 15.0729 10.4813 14.5188C9.92708 13.9646 9.65 13.2917 9.65 12.5C9.65 11.7083 9.92708 11.0354 10.4813 10.4812C11.0354 9.92708 11.7083 9.65 12.5 9.65C13.2917 9.65 13.9646 9.92708 14.5187 10.4812C15.0729 11.0354 15.35 11.7083 15.35 12.5C15.35 13.2917 15.0729 13.9646 14.5187 14.5188C13.9646 15.0729 13.2917 15.35 12.5 15.35ZM3.95 10.6C3.68084 10.6 3.45505 10.5088 3.27265 10.3264C3.09025 10.144 2.99937 9.91853 3 9.65V5.85C3 5.58083 3.0912 5.35505 3.2736 5.17265C3.456 4.99025 3.68147 4.89937 3.95 4.9C4.21917 4.9 4.44495 4.9912 4.62735 5.1736C4.80975 5.356 4.90064 5.58147 4.9 5.85V6.8C5.8025 5.59667 6.91875 4.6625 8.24875 3.9975C9.57875 3.3325 10.9958 3 12.5 3C14.5583 3 16.4029 3.59375 18.0337 4.78125C19.6646 5.96875 20.8125 7.5125 21.4775 9.4125C21.5883 9.72917 21.5525 10.0062 21.3701 10.2438C21.1877 10.4812 20.9148 10.6 20.5512 10.6C20.3771 10.6 20.2029 10.5325 20.0287 10.3976C19.8546 10.2627 19.7279 10.1085 19.6487 9.935C19.1104 8.43083 18.1921 7.21547 16.8937 6.2889C15.5954 5.36233 14.1308 4.89937 12.5 4.9C11.1383 4.9 9.87167 5.23662 8.7 5.90985C7.52833 6.58308 6.61 7.51313 5.945 8.7H7.75C8.01917 8.7 8.24495 8.7912 8.42735 8.9736C8.60975 9.156 8.70063 9.38147 8.7 9.65C8.7 9.91917 8.6088 10.145 8.4264 10.3274C8.244 10.5098 8.01853 10.6006 7.75 10.6H3.95ZM12.5 22C10.4417 22 8.59708 21.4062 6.96625 20.2188C5.33542 19.0312 4.1875 17.4875 3.5225 15.5875C3.41167 15.2708 3.44745 14.9937 3.62985 14.7562C3.81225 14.5188 4.08522 14.4 4.44875 14.4C4.62292 14.4 4.79709 14.4675 4.97125 14.6024C5.14542 14.7373 5.27209 14.8915 5.35125 15.065C5.88959 16.5692 6.80792 17.7845 8.10625 18.7111C9.40458 19.6377 10.8692 20.1006 12.5 20.1C13.8617 20.1 15.1283 19.7634 16.3 19.0902C17.4717 18.4169 18.39 17.4869 19.055 16.3H17.25C16.9808 16.3 16.7554 16.2088 16.5736 16.0264C16.3918 15.844 16.3006 15.6185 16.3 15.35C16.3 15.0808 16.3912 14.855 16.5736 14.6726C16.756 14.4902 16.9815 14.3994 17.25 14.4H21.05C21.3192 14.4 21.5449 14.4912 21.7273 14.6736C21.9097 14.856 22.0006 15.0815 22 15.35V19.15C22 19.4192 21.9088 19.6449 21.7264 19.8273C21.544 20.0097 21.3185 20.1006 21.05 20.1C20.7808 20.1 20.555 20.0088 20.3726 19.8264C20.1902 19.644 20.0994 19.4185 20.1 19.15V18.2C19.1975 19.4033 18.0812 20.3375 16.7512 21.0025C15.4212 21.6675 14.0042 22 12.5 22Z" fill="#565656"/>
</g>
</svg>
