<svg width="25" height="25" viewBox="0 0 25 25" fill="none" xmlns="http://www.w3.org/2000/svg">
<mask id="mask0_108_87" style="mask-type:alpha" maskUnits="userSpaceOnUse" x="0" y="0" width="25" height="25">
<rect width="25" height="25" fill="#D9D9D9"/>
</mask>
<g mask="url(#mask0_108_87)">
<path d="M4.80953 19.1176C4.31191 19.1176 3.88576 18.9447 3.5311 18.5988C3.17643 18.2529 2.9994 17.8376 3 17.3529V6.76471C3 6.27941 3.17733 5.86382 3.532 5.51794C3.88667 5.17206 4.31251 4.99941 4.80953 5H19.2857C19.7833 5 20.2095 5.17294 20.5641 5.51882C20.9188 5.86471 21.0958 6.28 21.0952 6.76471V12.0809H19.2857V6.76471H4.80953V17.3529H13.8798V19.1176H4.80953ZM18.8333 20L17.8381 17.8824L15.6667 16.9118L17.8381 15.9412L18.8333 13.8235L19.8286 15.9412L22 16.9118L19.8286 17.8824L18.8333 20ZM12.0476 15.5882L13.1786 13.1618L15.6667 12.0588L13.1786 10.9559L12.0476 8.52941L10.9167 10.9559L8.42857 12.0588L10.9167 13.1618L12.0476 15.5882Z" fill="#565656"/>
</g>
</svg>
